<svg xmlns="http://www.w3.org/2000/svg" viewBox="0 0 64 64"><title>Artboard-27</title><g id="Shopping_Online" data-name="Shopping Online"><path d="M63.4473,35.1055l-12-6a1.0008,1.0008,0,0,0-.8946,0l-12,6A1,1,0,0,0,38,36v9.667a14.96,14.96,0,0,0,9.2305,13.8457l3.3847,1.41a.9988.9988,0,0,0,.77,0l3.3847-1.41A14.96,14.96,0,0,0,64,45.667V36A1,1,0,0,0,63.4473,35.1055ZM62,45.667a12.9663,12.9663,0,0,1-8,12l-3,1.25-3-1.25a12.9663,12.9663,0,0,1-8-12V36.6182l11-5.5,11,5.5Z" style="fill:#19191c"/><path d="M50.5527,32.46l-9,4.5A1,1,0,0,0,41,37.8545V45.667a11.9657,11.9657,0,0,0,7.3843,11.0762l2.2309.93a.9988.9988,0,0,0,.77,0l2.2309-.93A11.9657,11.9657,0,0,0,61,45.667V37.8545a1,1,0,0,0-.5527-.8945l-9-4.5A1.0008,1.0008,0,0,0,50.5527,32.46ZM59,38.4727V45.667a9.9734,9.9734,0,0,1-6.1538,9.2305L51,55.667l-1.8462-.77A9.9734,9.9734,0,0,1,43,45.667V38.4727l8-4Z" style="fill:#19191c"/><path d="M36,13H47a3.0033,3.0033,0,0,1,3,3V26a1,1,0,0,0,2,0V16a5.0059,5.0059,0,0,0-5-5H36a1,1,0,0,0,0,2Z" style="fill:#19191c"/><path d="M37,59a4.0042,4.0042,0,0,1-4-4V51h3a1,1,0,0,0,0-2H5a3.0033,3.0033,0,0,1-3-3V43H35a1,1,0,0,0,0-2H14V19H38V32a1,1,0,0,0,2,0V18a1,1,0,0,0-1-1H33V10a7,7,0,0,0-14,0v1H5a5.0059,5.0059,0,0,0-5,5V46a5.0059,5.0059,0,0,0,5,5H19v4a4.0042,4.0042,0,0,1-4,4,1,1,0,0,0,0,2H37a1,1,0,0,0,0-2ZM21,10a5,5,0,0,1,10,0v1H24a1,1,0,0,0,0,2h7v4H21ZM5,13H19v4H13a1,1,0,0,0-1,1V41H2V16A3.0033,3.0033,0,0,1,5,13ZM19.4683,59A5.9759,5.9759,0,0,0,21,55V51H31v4a5.9759,5.9759,0,0,0,1.5317,4Z" style="fill:#19191c"/><path d="M20,21a1,1,0,0,0-1,1v2a7,7,0,0,0,14,0V22a1,1,0,0,0-2,0v2a5,5,0,0,1-10,0V22A1,1,0,0,0,20,21Z" style="fill:#19191c"/><path d="M5,45a1,1,0,0,0,0,2H7a1,1,0,0,0,0-2Z" style="fill:#19191c"/><path d="M10,45a1,1,0,0,0,0,2h6a1,1,0,0,0,0-2Z" style="fill:#19191c"/><path d="M48.707,44.3193a1,1,0,0,0-1.414,1.4141l2,2a.9995.9995,0,0,0,1.414,0l4-4a1,1,0,0,0-1.414-1.4141L50,45.6123Z" style="fill:#19191c"/></g></svg>